<svg width="342" height="139" viewBox="0 0 342 139" fill="none" xmlns="http://www.w3.org/2000/svg">
<rect width="341.375" height="139" fill="#FFF4ED"/>
<path d="M91.809 80.5C92.209 80.5 92.509 80.8 92.509 81.2V84.3C92.509 84.7 92.209 85 91.809 85H68.659C67.509 85 66.559 84.05 66.559 82.9V52.15C66.559 51 67.509 50.05 68.659 50.05H91.309C91.709 50.05 92.009 50.35 92.009 50.75V53.85C92.009 54.25 91.709 54.55 91.309 54.55H72.259C71.859 54.55 71.559 54.85 71.559 55.25V64.1C71.559 64.45 71.859 64.8 72.259 64.8H88.309C88.709 64.8 89.009 65.1 89.009 65.45V68.6C89.009 68.95 88.709 69.25 88.309 69.25H72.259C71.859 69.25 71.559 69.6 71.559 69.95V79.8C71.559 80.2 71.859 80.5 72.259 80.5H91.809ZM118.575 80.7C118.975 80.7 119.275 81 119.275 81.35V84.3C119.275 84.65 118.975 85 118.575 85H113.875C112.725 85 111.775 84.05 111.775 82.9V82.05C111.775 81.9 111.575 81.8 111.475 81.95C110.125 83.85 107.325 85.5 104.075 85.5C99.3754 85.5 95.8254 82.3 95.8254 78.1C95.8254 71.4 103.675 70.55 106.175 70.35C106.175 70.35 111.775 70.1 111.775 66.8C111.775 65.3 110.375 63.5 106.375 63.5C103.675 63.5 101.625 64.7 101.125 66.75C101.075 67.05 100.775 67.25 100.475 67.25H97.1254C96.6754 67.25 96.3254 66.9 96.4254 66.45C97.1254 62.35 101.125 59.55 106.375 59.55C112.825 59.55 116.525 63.9 116.525 69V80C116.525 80.35 116.825 80.7 117.225 80.7H118.575ZM111.775 71.25C111.775 71.05 111.575 71 111.475 71.15C110.175 73.4 100.575 72.6 100.575 77.9C100.575 79.9 101.675 81.5 104.825 81.5C108.775 81.5 111.775 78.9 111.775 76V71.25ZM135.684 70.7C139.884 71.55 142.584 73.8 142.584 78C142.584 82.5 138.534 85.5 132.734 85.5C126.584 85.5 123.184 82.45 122.584 78.05C122.534 77.65 122.834 77.25 123.284 77.25H126.634C126.984 77.25 127.284 77.45 127.334 77.8C127.834 80.2 129.934 81.5 132.784 81.5H133.184C135.834 81.5 137.834 80.25 137.834 78.25C137.834 76.6 136.884 75.5 134.434 75.05L130.784 74.35C126.384 73.5 122.934 71.2 122.934 67.2C122.934 62.4 127.184 59.55 132.234 59.55C138.334 59.55 141.884 62.55 142.234 67C142.234 67.4 141.934 67.75 141.534 67.75H138.084C137.784 67.75 137.484 67.55 137.434 67.25C136.984 65.1 135.234 63.5 132.634 63.5H132.234C129.484 63.5 127.684 64.9 127.684 66.7C127.684 68.35 129.384 69.45 131.734 69.9L135.684 70.7ZM169.11 60.05C169.61 60.05 169.96 60.55 169.76 61L155.76 93.95C155.51 94.55 154.86 95 154.21 95H146.66C146.26 95 145.96 94.65 145.96 94.3V91.45C145.96 91.05 146.26 90.75 146.66 90.75H152.36C152.51 90.75 152.66 90.65 152.71 90.5L155.26 84.65C155.31 84.45 155.31 84.25 155.26 84.1L145.36 61C145.16 60.55 145.51 60.05 146.01 60.05H149.56C149.81 60.05 150.06 60.2 150.16 60.45L157.46 77.7C157.56 77.95 157.96 77.95 158.11 77.7L165.06 60.5C165.21 60.2 165.46 60.05 165.71 60.05H169.11ZM189.487 65.5C195.787 66.75 198.987 70.1 198.987 75.55C198.987 81.6 193.737 85.5 186.087 85.5C177.987 85.5 172.987 81.7 172.387 74.5C172.337 74.1 172.687 73.75 173.087 73.75H176.687C177.037 73.75 177.337 74.05 177.337 74.4C177.687 78.7 181.237 81 186.287 81H186.787C191.337 81 193.987 78.65 193.987 75.75C193.987 72.9 192.237 71.3 188.537 70.55L182.937 69.4C177.187 68.2 173.037 65 173.037 59.55C173.037 54.05 177.987 49.55 185.487 49.55C192.887 49.55 197.837 53.55 198.387 59.8C198.387 60.2 198.087 60.55 197.687 60.55H194.087C193.737 60.55 193.437 60.3 193.387 59.95C192.887 56.35 189.837 54.05 185.737 54.05H185.237C180.987 54.05 177.987 56.35 177.987 59.5C177.987 62.1 180.887 63.8 183.887 64.4L189.487 65.5ZM225.656 80.7C226.056 80.7 226.356 81 226.356 81.35V84.3C226.356 84.65 226.056 85 225.656 85H220.956C219.806 85 218.856 84.05 218.856 82.9V82.05C218.856 81.9 218.656 81.8 218.556 81.95C217.206 83.85 214.406 85.5 211.156 85.5C206.456 85.5 202.906 82.3 202.906 78.1C202.906 71.4 210.756 70.55 213.256 70.35C213.256 70.35 218.856 70.1 218.856 66.8C218.856 65.3 217.456 63.5 213.456 63.5C210.756 63.5 208.706 64.7 208.206 66.75C208.156 67.05 207.856 67.25 207.556 67.25H204.206C203.756 67.25 203.406 66.9 203.506 66.45C204.206 62.35 208.206 59.55 213.456 59.55C219.906 59.55 223.606 63.9 223.606 69V80C223.606 80.35 223.906 80.7 224.306 80.7H225.656ZM218.856 71.25C218.856 71.05 218.656 71 218.556 71.15C217.256 73.4 207.656 72.6 207.656 77.9C207.656 79.9 208.756 81.5 211.906 81.5C215.856 81.5 218.856 78.9 218.856 76V71.25ZM249.706 60C250.206 60 250.556 60.5 250.356 60.95L241.656 84.55C241.556 84.8 241.306 85 241.006 85H236.206C235.956 85 235.656 84.8 235.556 84.55L226.856 60.95C226.706 60.5 227.006 60 227.506 60H230.906C231.206 60 231.456 60.2 231.556 60.5L238.456 79.9C238.506 80.05 238.756 80.05 238.806 79.9L245.706 60.5C245.806 60.2 246.056 60 246.356 60H249.706ZM273.913 77.65C274.363 77.65 274.713 78.05 274.563 78.5C273.363 82.9 269.263 85.5 264.413 85.5C257.963 85.5 252.613 80.95 252.613 72.5C252.613 64.15 258.163 59.55 264.263 59.55C270.663 59.55 274.613 63.2 274.363 67.55C273.863 75.5 258.113 70.95 258.113 76.85C258.113 79.85 261.913 81.5 264.363 81.5H264.763C267.163 81.5 269.313 80.35 269.913 78.1C270.013 77.8 270.263 77.65 270.563 77.65H273.913ZM257.663 72.55C257.663 72.7 257.863 72.8 257.963 72.65C260.313 69.4 269.113 70.75 269.613 67.35C269.963 64.8 267.613 63.55 264.113 63.55C261.013 63.55 257.663 65.9 257.663 72.55Z" fill="#15171D"/>
<path d="M172.958 95V85.5455H176.263C176.922 85.5455 177.465 85.6593 177.893 85.8871C178.321 86.1117 178.639 86.4149 178.849 86.7965C179.058 87.1751 179.163 87.5952 179.163 88.0568C179.163 88.4631 179.09 88.7985 178.946 89.0632C178.804 89.3279 178.616 89.5372 178.382 89.6911C178.152 89.8449 177.901 89.9588 177.63 90.0327V90.125C177.919 90.1435 178.21 90.245 178.502 90.4297C178.795 90.6143 179.04 90.879 179.236 91.2237C179.433 91.5684 179.532 91.9901 179.532 92.4886C179.532 92.9626 179.424 93.3888 179.209 93.7674C178.993 94.146 178.653 94.446 178.189 94.6676C177.724 94.8892 177.119 95 176.374 95H172.958ZM174.103 93.9844H176.374C177.122 93.9844 177.653 93.8397 177.967 93.5504C178.284 93.258 178.442 92.9041 178.442 92.4886C178.442 92.1686 178.361 91.8731 178.198 91.6023C178.035 91.3284 177.802 91.1098 177.501 90.9467C177.199 90.7805 176.842 90.6974 176.43 90.6974H174.103V93.9844ZM174.103 89.7003H176.227C176.571 89.7003 176.882 89.6326 177.159 89.4972C177.439 89.3617 177.661 89.1709 177.824 88.9247C177.99 88.6785 178.073 88.3892 178.073 88.0568C178.073 87.6413 177.928 87.2889 177.639 86.9996C177.35 86.7073 176.891 86.5611 176.263 86.5611H174.103V89.7003ZM183.352 95.1662C182.903 95.1662 182.495 95.0816 182.129 94.9123C181.762 94.7399 181.472 94.4922 181.256 94.169C181.041 93.8428 180.933 93.4489 180.933 92.9872C180.933 92.581 181.013 92.2517 181.173 91.9993C181.333 91.7438 181.547 91.5438 181.815 91.3991C182.083 91.2545 182.378 91.1468 182.701 91.076C183.027 91.0021 183.355 90.9437 183.684 90.9006C184.115 90.8452 184.465 90.8036 184.732 90.7759C185.003 90.7451 185.2 90.6944 185.323 90.6236C185.449 90.5528 185.513 90.4297 185.513 90.2543V90.2173C185.513 89.7618 185.388 89.4079 185.139 89.1555C184.892 88.9032 184.518 88.777 184.017 88.777C183.497 88.777 183.089 88.8909 182.793 89.1186C182.498 89.3464 182.29 89.5895 182.17 89.848L181.136 89.4787C181.321 89.0478 181.567 88.7124 181.875 88.4723C182.186 88.2292 182.524 88.0599 182.89 87.9645C183.26 87.866 183.623 87.8168 183.98 87.8168C184.208 87.8168 184.469 87.8445 184.765 87.8999C185.063 87.9522 185.351 88.0614 185.628 88.2276C185.908 88.3938 186.14 88.6446 186.325 88.9801C186.51 89.3156 186.602 89.7649 186.602 90.3281V95H185.513V94.0398H185.457C185.383 94.1937 185.26 94.3583 185.088 94.5337C184.916 94.7092 184.686 94.8584 184.4 94.9815C184.114 95.1046 183.764 95.1662 183.352 95.1662ZM183.518 94.1875C183.949 94.1875 184.312 94.1029 184.608 93.9336C184.906 93.7643 185.131 93.5458 185.282 93.2781C185.436 93.0103 185.513 92.7287 185.513 92.4332V91.4361C185.466 91.4915 185.365 91.5423 185.208 91.5884C185.054 91.6315 184.876 91.67 184.672 91.7038C184.472 91.7346 184.277 91.7623 184.086 91.7869C183.898 91.8085 183.746 91.8269 183.629 91.8423C183.346 91.8793 183.081 91.9393 182.835 92.0224C182.592 92.1024 182.395 92.224 182.244 92.3871C182.096 92.5471 182.023 92.7656 182.023 93.0426C182.023 93.4212 182.163 93.7074 182.443 93.9013C182.726 94.0921 183.084 94.1875 183.518 94.1875ZM191.471 95.1477C190.807 95.1477 190.234 94.9908 189.754 94.6768C189.274 94.3629 188.905 93.9305 188.646 93.3796C188.387 92.8287 188.258 92.1993 188.258 91.4915C188.258 90.7713 188.391 90.1358 188.655 89.5849C188.923 89.0309 189.295 88.5985 189.772 88.2876C190.253 87.9737 190.813 87.8168 191.453 87.8168C191.951 87.8168 192.401 87.9091 192.801 88.0938C193.201 88.2784 193.529 88.5369 193.784 88.8693C194.04 89.2017 194.198 89.5895 194.26 90.0327H193.17C193.087 89.7095 192.902 89.4233 192.616 89.174C192.333 88.9216 191.951 88.7955 191.471 88.7955C191.047 88.7955 190.674 88.9062 190.354 89.1278C190.037 89.3464 189.789 89.6557 189.611 90.0558C189.435 90.4528 189.348 90.919 189.348 91.4545C189.348 92.0024 189.434 92.4794 189.606 92.8857C189.782 93.2919 190.028 93.6074 190.345 93.832C190.665 94.0567 191.04 94.169 191.471 94.169C191.754 94.169 192.011 94.1198 192.242 94.0213C192.473 93.9228 192.668 93.7812 192.829 93.5966C192.989 93.4119 193.102 93.1903 193.17 92.9318H194.26C194.198 93.3504 194.046 93.7274 193.803 94.0629C193.563 94.3952 193.244 94.6599 192.847 94.8569C192.453 95.0508 191.994 95.1477 191.471 95.1477ZM196.868 92.4148L196.849 91.0668H197.071L200.173 87.9091H201.521L198.216 91.2514H198.124L196.868 92.4148ZM195.852 95V85.5455H196.942V95H195.852ZM200.358 95L197.588 91.4915L198.364 90.7344L201.743 95H200.358ZM207.392 92.1009V87.9091H208.482V95H207.392V93.7997H207.319C207.152 94.1598 206.894 94.466 206.543 94.7184C206.192 94.9677 205.749 95.0923 205.213 95.0923C204.77 95.0923 204.376 94.9954 204.032 94.8015C203.687 94.6045 203.416 94.3091 203.219 93.9151C203.022 93.5181 202.924 93.018 202.924 92.4148V87.9091H204.013V92.3409C204.013 92.858 204.158 93.2704 204.447 93.5781C204.739 93.8859 205.112 94.0398 205.564 94.0398C205.835 94.0398 206.111 93.9705 206.391 93.832C206.674 93.6935 206.911 93.4812 207.102 93.195C207.295 92.9087 207.392 92.544 207.392 92.1009ZM210.477 97.6591V87.9091H211.53V89.0355H211.659C211.739 88.9124 211.85 88.7554 211.992 88.5646C212.136 88.3707 212.342 88.1984 212.61 88.0476C212.881 87.8937 213.247 87.8168 213.709 87.8168C214.306 87.8168 214.832 87.966 215.288 88.2646C215.743 88.5631 216.099 88.9863 216.354 89.5341C216.61 90.0819 216.737 90.7282 216.737 91.473C216.737 92.224 216.61 92.8749 216.354 93.4258C216.099 93.9736 215.745 94.3983 215.292 94.6999C214.84 94.9985 214.318 95.1477 213.727 95.1477C213.272 95.1477 212.907 95.0723 212.633 94.9215C212.359 94.7676 212.148 94.5937 212.001 94.3999C211.853 94.2029 211.739 94.0398 211.659 93.9105H211.567V97.6591H210.477ZM211.548 91.4545C211.548 91.9901 211.627 92.4625 211.784 92.8718C211.941 93.2781 212.17 93.5966 212.472 93.8274C212.773 94.0552 213.143 94.169 213.58 94.169C214.035 94.169 214.415 94.049 214.72 93.8089C215.028 93.5658 215.258 93.2396 215.412 92.8303C215.569 92.4179 215.648 91.9593 215.648 91.4545C215.648 90.956 215.571 90.5066 215.417 90.1065C215.266 89.7034 215.037 89.3848 214.729 89.1509C214.424 88.9139 214.041 88.7955 213.58 88.7955C213.136 88.7955 212.764 88.9078 212.462 89.1325C212.161 89.354 211.933 89.6649 211.779 90.065C211.625 90.462 211.548 90.9252 211.548 91.4545ZM222.055 95V87.9091H223.108V89.017H223.2C223.348 88.6385 223.587 88.3446 223.916 88.1353C224.245 87.9229 224.641 87.8168 225.102 87.8168C225.57 87.8168 225.959 87.9229 226.27 88.1353C226.584 88.3446 226.829 88.6385 227.004 89.017H227.078C227.26 88.6508 227.532 88.36 227.895 88.1445C228.258 87.926 228.694 87.8168 229.202 87.8168C229.836 87.8168 230.354 88.0153 230.758 88.4123C231.161 88.8062 231.362 89.4202 231.362 90.2543V95H230.273V90.2543C230.273 89.7311 230.13 89.3571 229.843 89.1325C229.557 88.9078 229.22 88.7955 228.832 88.7955C228.334 88.7955 227.948 88.9463 227.674 89.2479C227.4 89.5464 227.263 89.925 227.263 90.3835V95H226.155V90.1435C226.155 89.7403 226.024 89.4156 225.762 89.1694C225.501 88.9201 225.164 88.7955 224.751 88.7955C224.468 88.7955 224.204 88.8709 223.957 89.0217C223.714 89.1725 223.517 89.3817 223.367 89.6495C223.219 89.9142 223.145 90.2204 223.145 90.5682V95H222.055ZM235.441 95.1662C234.992 95.1662 234.584 95.0816 234.218 94.9123C233.851 94.7399 233.56 94.4922 233.345 94.169C233.13 93.8428 233.022 93.4489 233.022 92.9872C233.022 92.581 233.102 92.2517 233.262 91.9993C233.422 91.7438 233.636 91.5438 233.904 91.3991C234.171 91.2545 234.467 91.1468 234.79 91.076C235.116 91.0021 235.444 90.9437 235.773 90.9006C236.204 90.8452 236.554 90.8036 236.821 90.7759C237.092 90.7451 237.289 90.6944 237.412 90.6236C237.538 90.5528 237.601 90.4297 237.601 90.2543V90.2173C237.601 89.7618 237.477 89.4079 237.228 89.1555C236.981 88.9032 236.607 88.777 236.106 88.777C235.586 88.777 235.178 88.8909 234.882 89.1186C234.587 89.3464 234.379 89.5895 234.259 89.848L233.225 89.4787C233.41 89.0478 233.656 88.7124 233.964 88.4723C234.275 88.2292 234.613 88.0599 234.979 87.9645C235.349 87.866 235.712 87.8168 236.069 87.8168C236.297 87.8168 236.558 87.8445 236.854 87.8999C237.152 87.9522 237.44 88.0614 237.717 88.2276C237.997 88.3938 238.229 88.6446 238.414 88.9801C238.599 89.3156 238.691 89.7649 238.691 90.3281V95H237.601V94.0398H237.546C237.472 94.1937 237.349 94.3583 237.177 94.5337C237.004 94.7092 236.775 94.8584 236.489 94.9815C236.203 95.1046 235.853 95.1662 235.441 95.1662ZM235.607 94.1875C236.038 94.1875 236.401 94.1029 236.697 93.9336C236.995 93.7643 237.22 93.5458 237.371 93.2781C237.525 93.0103 237.601 92.7287 237.601 92.4332V91.4361C237.555 91.4915 237.454 91.5423 237.297 91.5884C237.143 91.6315 236.964 91.67 236.761 91.7038C236.561 91.7346 236.366 91.7623 236.175 91.7869C235.987 91.8085 235.835 91.8269 235.718 91.8423C235.435 91.8793 235.17 91.9393 234.924 92.0224C234.681 92.1024 234.484 92.224 234.333 92.3871C234.185 92.5471 234.111 92.7656 234.111 93.0426C234.111 93.4212 234.251 93.7074 234.531 93.9013C234.815 94.0921 235.173 94.1875 235.607 94.1875ZM241.769 90.7344V95H240.679V87.9091H241.732V89.017H241.824C241.991 88.657 242.243 88.3677 242.581 88.1491C242.92 87.9276 243.357 87.8168 243.893 87.8168C244.373 87.8168 244.793 87.9152 245.153 88.1122C245.513 88.3061 245.793 88.6016 245.993 88.9986C246.193 89.3925 246.293 89.8911 246.293 90.4943V95H245.204V90.5682C245.204 90.0111 245.059 89.5772 244.77 89.2663C244.48 88.9524 244.083 88.7955 243.579 88.7955C243.231 88.7955 242.92 88.8709 242.646 89.0217C242.375 89.1725 242.161 89.3925 242.004 89.6818C241.847 89.9711 241.769 90.322 241.769 90.7344ZM250.371 95.1662C249.921 95.1662 249.513 95.0816 249.147 94.9123C248.781 94.7399 248.49 94.4922 248.275 94.169C248.059 93.8428 247.952 93.4489 247.952 92.9872C247.952 92.581 248.032 92.2517 248.192 91.9993C248.352 91.7438 248.566 91.5438 248.833 91.3991C249.101 91.2545 249.397 91.1468 249.72 91.076C250.046 91.0021 250.374 90.9437 250.703 90.9006C251.134 90.8452 251.483 90.8036 251.751 90.7759C252.022 90.7451 252.219 90.6944 252.342 90.6236C252.468 90.5528 252.531 90.4297 252.531 90.2543V90.2173C252.531 89.7618 252.406 89.4079 252.157 89.1555C251.911 88.9032 251.537 88.777 251.035 88.777C250.515 88.777 250.107 88.8909 249.812 89.1186C249.517 89.3464 249.309 89.5895 249.189 89.848L248.155 89.4787C248.339 89.0478 248.586 88.7124 248.893 88.4723C249.204 88.2292 249.543 88.0599 249.909 87.9645C250.278 87.866 250.641 87.8168 250.998 87.8168C251.226 87.8168 251.488 87.8445 251.783 87.8999C252.082 87.9522 252.37 88.0614 252.647 88.2276C252.927 88.3938 253.159 88.6446 253.344 88.9801C253.528 89.3156 253.621 89.7649 253.621 90.3281V95H252.531V94.0398H252.476C252.402 94.1937 252.279 94.3583 252.106 94.5337C251.934 94.7092 251.705 94.8584 251.419 94.9815C251.132 95.1046 250.783 95.1662 250.371 95.1662ZM250.537 94.1875C250.968 94.1875 251.331 94.1029 251.626 93.9336C251.925 93.7643 252.15 93.5458 252.3 93.2781C252.454 93.0103 252.531 92.7287 252.531 92.4332V91.4361C252.485 91.4915 252.383 91.5423 252.226 91.5884C252.073 91.6315 251.894 91.67 251.691 91.7038C251.491 91.7346 251.295 91.7623 251.105 91.7869C250.917 91.8085 250.765 91.8269 250.648 91.8423C250.364 91.8793 250.1 91.9393 249.854 92.0224C249.61 92.1024 249.413 92.224 249.263 92.3871C249.115 92.5471 249.041 92.7656 249.041 93.0426C249.041 93.4212 249.181 93.7074 249.461 93.9013C249.744 94.0921 250.103 94.1875 250.537 94.1875ZM258.471 97.8068C257.945 97.8068 257.493 97.7391 257.114 97.6037C256.736 97.4714 256.42 97.2959 256.168 97.0774C255.918 96.862 255.72 96.6312 255.572 96.3849L256.44 95.7756C256.539 95.9048 256.663 96.0526 256.814 96.2188C256.965 96.388 257.171 96.5342 257.433 96.6573C257.697 96.7835 258.044 96.8466 258.471 96.8466C259.044 96.8466 259.516 96.7081 259.889 96.4311C260.261 96.1541 260.447 95.7202 260.447 95.1293V93.6889H260.355C260.275 93.8182 260.161 93.9782 260.013 94.169C259.869 94.3568 259.659 94.5245 259.385 94.6722C259.115 94.8169 258.748 94.8892 258.287 94.8892C257.714 94.8892 257.2 94.7538 256.745 94.483C256.292 94.2121 255.934 93.8182 255.669 93.3011C255.408 92.7841 255.277 92.1562 255.277 91.4176C255.277 90.6913 255.405 90.0588 255.66 89.5202C255.915 88.9786 256.271 88.56 256.726 88.2646C257.182 87.966 257.708 87.8168 258.305 87.8168C258.767 87.8168 259.133 87.8937 259.404 88.0476C259.678 88.1984 259.887 88.3707 260.032 88.5646C260.179 88.7554 260.293 88.9124 260.373 89.0355H260.484V87.9091H261.537V95.2031C261.537 95.8125 261.398 96.308 261.121 96.6896C260.847 97.0743 260.478 97.3559 260.013 97.5344C259.552 97.716 259.038 97.8068 258.471 97.8068ZM258.434 93.9105C258.871 93.9105 259.241 93.8105 259.542 93.6104C259.844 93.4104 260.073 93.1226 260.23 92.7472C260.387 92.3717 260.466 91.9223 260.466 91.3991C260.466 90.8883 260.389 90.4374 260.235 90.0465C260.081 89.6557 259.853 89.3494 259.552 89.1278C259.25 88.9062 258.878 88.7955 258.434 88.7955C257.973 88.7955 257.588 88.9124 257.28 89.1463C256.976 89.3802 256.746 89.6941 256.592 90.0881C256.442 90.482 256.366 90.919 256.366 91.3991C256.366 91.8916 256.443 92.3271 256.597 92.7056C256.754 93.0811 256.985 93.3765 257.29 93.592C257.597 93.8043 257.979 93.9105 258.434 93.9105ZM266.504 95.1477C265.821 95.1477 265.231 94.9969 264.736 94.6953C264.244 94.3906 263.863 93.9659 263.596 93.4212C263.331 92.8733 263.199 92.2363 263.199 91.5099C263.199 90.7836 263.331 90.1435 263.596 89.5895C263.863 89.0324 264.236 88.5985 264.713 88.2876C265.193 87.9737 265.753 87.8168 266.393 87.8168C266.763 87.8168 267.127 87.8783 267.487 88.0014C267.847 88.1245 268.175 88.3246 268.471 88.6016C268.766 88.8755 269.002 89.2386 269.177 89.6911C269.352 90.1435 269.44 90.7005 269.44 91.3622V91.8239H263.974V90.8821H268.332C268.332 90.482 268.252 90.125 268.092 89.8111C267.935 89.4972 267.71 89.2494 267.418 89.0678C267.129 88.8862 266.787 88.7955 266.393 88.7955C265.959 88.7955 265.584 88.9032 265.267 89.1186C264.953 89.331 264.711 89.608 264.542 89.9496C264.373 90.2912 264.288 90.6574 264.288 91.0483V91.6761C264.288 92.2116 264.38 92.6656 264.565 93.038C264.753 93.4073 265.013 93.6889 265.345 93.8828C265.678 94.0736 266.064 94.169 266.504 94.169C266.79 94.169 267.049 94.129 267.28 94.049C267.514 93.9659 267.715 93.8428 267.884 93.6797C268.054 93.5135 268.184 93.3073 268.277 93.0611L269.329 93.3565C269.219 93.7135 269.032 94.0275 268.771 94.2983C268.509 94.5661 268.186 94.7753 267.801 94.9261C267.417 95.0739 266.984 95.1477 266.504 95.1477ZM271.097 95V87.9091H272.15V88.9801H272.224C272.353 88.6293 272.587 88.3446 272.926 88.1261C273.264 87.9076 273.646 87.7983 274.07 87.7983C274.15 87.7983 274.251 87.7998 274.371 87.8029C274.491 87.806 274.581 87.8106 274.643 87.8168V88.9247C274.606 88.9155 274.521 88.9016 274.389 88.8832C274.26 88.8616 274.123 88.8509 273.978 88.8509C273.633 88.8509 273.326 88.9232 273.055 89.0678C272.787 89.2094 272.575 89.4064 272.418 89.6587C272.264 89.908 272.187 90.1927 272.187 90.5128V95H271.097Z" fill="#15171D"/>
</svg>
